<svg xmlns="http://www.w3.org/2000/svg" viewBox="0 0 200 280" fill="none">
  <defs>
    <radialGradient id="ly-aura" cx="0.5" cy="0.6" r="0.55"><stop offset="0%" stop-color="#93c5fd" stop-opacity="0.55"></stop><stop offset="100%" stop-color="#60a5fa" stop-opacity="0"></stop></radialGradient>
    <linearGradient id="ly-hair" x1="0" y1="0" x2="0" y2="1"><stop offset="0%" stop-color="#bfdbfe"></stop><stop offset="100%" stop-color="#3b82f6"></stop></linearGradient>
    <linearGradient id="ly-uniform" x1="0" y1="0" x2="0" y2="1"><stop offset="0%" stop-color="#1f2540"></stop><stop offset="100%" stop-color="#0f1228"></stop></linearGradient>
  </defs>
  <circle cx="100" cy="150" r="120" fill="url(#ly-aura)"></circle>

  
  <g>
    <g transform="translate(20 50) rotate(-15)">
      <rect width="34" height="44" rx="2" fill="#3b82f6" stroke="#1e40af" stroke-width="1"></rect>
      <rect x="2" y="2" width="30" height="40" fill="#60a5fa" opacity="0.5"></rect>
      <line x1="6" y1="10" x2="28" y2="10" stroke="#bfdbfe" stroke-width="1"></line>
      <line x1="6" y1="14" x2="24" y2="14" stroke="#bfdbfe" stroke-width="1"></line>
      <line x1="6" y1="18" x2="26" y2="18" stroke="#bfdbfe" stroke-width="1"></line>
    </g>
    <g transform="translate(160 70) rotate(20)">
      <rect width="28" height="36" rx="2" fill="#1e40af" stroke="#1e3a8a" stroke-width="1"></rect>
      <rect x="2" y="2" width="24" height="32" fill="#60a5fa" opacity="0.4"></rect>
      <line x1="6" y1="10" x2="22" y2="10" stroke="#bfdbfe" stroke-width="1"></line>
      <line x1="6" y1="14" x2="20" y2="14" stroke="#bfdbfe" stroke-width="1"></line>
    </g>
    <g transform="translate(168 200) rotate(-10)">
      <rect width="22" height="28" rx="2" fill="#3b82f6" stroke="#1e40af" stroke-width="1"></rect>
    </g>
  </g>
  
  <g font-family="monospace" font-size="9" fill="#bfdbfe">
    <g transform="translate(10 200)">
      <path d="M0 0 L48 0 L48 16 L20 16 L14 22 L14 16 L0 16 Z" fill="#60a5fa" opacity="0.85"></path>
      <text x="6" y="11" fill="#0f1228" font-weight="bold">where?</text>
    </g>
  </g>

  
  <path d="M70 215 L130 215 L138 240 L62 240 Z" fill="url(#ly-uniform)"></path>
  <path d="M70 215 L130 215 L138 240 L62 240 Z" fill="none" stroke="#60a5fa" stroke-width="1"></path>
  <line x1="100" y1="215" x2="100" y2="240" stroke="#60a5fa" stroke-width="1" opacity="0.5"></line>
  
  <rect x="84" y="240" width="10" height="20" fill="#1f2540"></rect>
  <rect x="106" y="240" width="10" height="20" fill="#1f2540"></rect>
  <rect x="80" y="258" width="18" height="8" rx="2" fill="#0a0a14"></rect>
  <rect x="102" y="258" width="18" height="8" rx="2" fill="#0a0a14"></rect>

  
  <path d="M62 145 Q60 132 70 128 L130 128 Q140 132 138 145 L142 215 L58 215 Z" fill="url(#ly-uniform)" stroke="#1e40af" stroke-width="1"></path>
  
  <path d="M76 128 L100 142 L124 128 L124 145 L100 158 L76 145 Z" fill="#f0f4f8"></path>
  
  <path d="M94 144 L100 142 L106 144 L102 152 L100 154 L98 152 Z" fill="#3b82f6"></path>
  <circle cx="100" cy="148" r="2" fill="#1e40af"></circle>
  
  <circle cx="100" cy="170" r="1.5" fill="#bfdbfe"></circle>
  <circle cx="100" cy="185" r="1.5" fill="#bfdbfe"></circle>
  <circle cx="100" cy="200" r="1.5" fill="#bfdbfe"></circle>
  <rect x="62" y="158" width="18" height="9" rx="1" fill="#ed1c24"></rect>
  <text x="71" y="165" font-family="Arial" font-size="6" font-weight="bold" fill="#fff" text-anchor="middle">AMD</text>

  
  <path d="M62 148 Q50 156 50 175 L62 200 L72 195 L70 175 Q70 158 76 152 Z" fill="url(#ly-uniform)"></path>
  <path d="M138 148 Q150 156 150 175 L138 200 L128 195 L130 175 Q130 158 124 152 Z" fill="url(#ly-uniform)"></path>
  <circle cx="65" cy="200" r="6" fill="#ffe0c2"></circle>
  <circle cx="135" cy="200" r="6" fill="#ffe0c2"></circle>
  
  <g transform="translate(100 200)">
    <path d="M-30 -2 L0 -10 L0 10 L-30 18 Z" fill="#bfdbfe" stroke="#1e40af" stroke-width="1.2"></path>
    <path d="M30 -2 L0 -10 L0 10 L30 18 Z" fill="#bfdbfe" stroke="#1e40af" stroke-width="1.2"></path>
    <path d="M0 -10 L0 10" stroke="#1e40af" stroke-width="1.2"></path>
    <line x1="-26" y1="0" x2="-4" y2="-6" stroke="#3b82f6" stroke-width="0.8"></line>
    <line x1="-26" y1="4" x2="-4" y2="-2" stroke="#3b82f6" stroke-width="0.8"></line>
    <line x1="-26" y1="8" x2="-4" y2="2" stroke="#3b82f6" stroke-width="0.8"></line>
    <line x1="4" y1="-6" x2="26" y2="0" stroke="#3b82f6" stroke-width="0.8"></line>
    <line x1="4" y1="-2" x2="26" y2="4" stroke="#3b82f6" stroke-width="0.8"></line>
    <line x1="4" y1="2" x2="26" y2="8" stroke="#3b82f6" stroke-width="0.8"></line>
    
    <circle cx="0" cy="-2" r="6" fill="#60a5fa" opacity="0.6"></circle>
    <text x="0" y="0" font-family="monospace" font-size="6" fill="#fff" text-anchor="middle" font-weight="bold">!</text>
  </g>

  
  <rect x="92" y="118" width="16" height="12" fill="#ffe0c2"></rect>

  
  <ellipse cx="100" cy="92" rx="30" ry="32" fill="#ffe7cc"></ellipse>
  <path d="M82 105 Q100 120 118 105 Q116 116 100 120 Q84 116 82 105 Z" fill="#ffd5a8" opacity="0.6"></path>

  
  <path d="M68 88 Q64 50 88 38 L92 50 L100 32 L108 50 L112 38 Q136 50 132 88 L132 138 L122 134 L120 90 Q110 78 100 80 Q90 78 80 90 L80 134 L68 138 Z" fill="url(#ly-hair)" stroke="#1e40af" stroke-width="1"></path>
  
  <path d="M70 86 L130 86 L130 96 Q116 84 100 86 Q84 84 70 96 Z" fill="url(#ly-hair)"></path>
  
  <path d="M68 86 L66 124 L78 124 L78 90 Z" fill="url(#ly-hair)"></path>
  <path d="M132 86 L134 124 L122 124 L122 90 Z" fill="url(#ly-hair)"></path>

  
  <g stroke="#bfdbfe" stroke-width="1.5" fill="rgba(191,219,254,0.15)">
    <ellipse cx="86" cy="96" rx="9" ry="7"></ellipse>
    <ellipse cx="114" cy="96" rx="9" ry="7"></ellipse>
    <line x1="95" y1="96" x2="105" y2="96"></line>
    <line x1="77" y1="96" x2="71" y2="92" fill="none"></line>
    <line x1="123" y1="96" x2="129" y2="92" fill="none"></line>
  </g>
  
  <line x1="80" y1="92" x2="84" y2="90" stroke="#fff" stroke-width="1.5" opacity="0.8"></line>
  <line x1="108" y1="92" x2="112" y2="90" stroke="#fff" stroke-width="1.5" opacity="0.8"></line>

  
  <g>
    <ellipse cx="86" cy="96" rx="6" ry="7.5" fill="#fff"></ellipse>
    <ellipse cx="114" cy="96" rx="6" ry="7.5" fill="#fff"></ellipse>
    <path d="M80 90 Q86 86 92 90" stroke="#0a1228" stroke-width="2" fill="none" stroke-linecap="round"></path>
    <path d="M108 90 Q114 86 120 90" stroke="#0a1228" stroke-width="2" fill="none" stroke-linecap="round"></path>
    <ellipse cx="86" cy="97" rx="4.5" ry="6" fill="#3b82f6"></ellipse>
    <ellipse cx="114" cy="97" rx="4.5" ry="6" fill="#3b82f6"></ellipse>
    <ellipse cx="86" cy="98" rx="2" ry="3" fill="#0a1228"></ellipse>
    <ellipse cx="114" cy="98" rx="2" ry="3" fill="#0a1228"></ellipse>
    <ellipse cx="88" cy="93" rx="1.4" ry="1.8" fill="#fff"></ellipse>
    <ellipse cx="116" cy="93" rx="1.4" ry="1.8" fill="#fff"></ellipse>
  </g>
  <path d="M78 84 L94 82" stroke="#1e40af" stroke-width="2.2" stroke-linecap="round"></path>
  <path d="M106 82 L122 84" stroke="#1e40af" stroke-width="2.2" stroke-linecap="round"></path>
  <path d="M99 104 L101 108" stroke="#d4a373" stroke-width="1" stroke-linecap="round"></path>
  <path d="M94 114 Q100 116 106 114" stroke="#7c2d12" stroke-width="1.4" stroke-linecap="round" fill="none"></path>
</svg>