<svg xmlns="http://www.w3.org/2000/svg" viewBox="0 0 200 280" fill="none">
  <defs>
    <radialGradient id="no-aura" cx="0.5" cy="0.6" r="0.55"><stop offset="0%" stop-color="#f9a8d4" stop-opacity="0.55"></stop><stop offset="100%" stop-color="#ec4899" stop-opacity="0"></stop></radialGradient>
    <linearGradient id="no-hair" x1="0" y1="0" x2="0" y2="1"><stop offset="0%" stop-color="#fbcfe8"></stop><stop offset="100%" stop-color="#db2777"></stop></linearGradient>
    <linearGradient id="no-jacket" x1="0" y1="0" x2="0" y2="1"><stop offset="0%" stop-color="#1a1430"></stop><stop offset="100%" stop-color="#0a0815"></stop></linearGradient>
  </defs>
  <circle cx="100" cy="150" r="120" fill="url(#no-aura)"></circle>

  
  <g stroke="#f9a8d4" fill="none" opacity="0.7">
    <path d="M155 75 Q172 80 168 100" stroke-width="1.5"></path>
    <path d="M158 65 Q186 75 178 110" stroke-width="1.5"></path>
    <path d="M161 55 Q198 70 188 115" stroke-width="1.5"></path>
  </g>
  
  <g font-family="monospace" font-size="8">
    <g transform="translate(28 60)">
      <rect width="36" height="14" rx="7" fill="#ec4899"></rect>
      <text x="6" y="10" fill="#fff" font-weight="bold">v1.3.0</text>
    </g>
    <g transform="translate(20 130)">
      <rect width="28" height="14" rx="7" fill="none" stroke="#ec4899" stroke-width="1.2"></rect>
      <text x="6" y="10" fill="#f9a8d4">SHIP</text>
    </g>
    <g transform="translate(160 200)">
      <rect width="28" height="14" rx="7" fill="none" stroke="#ec4899" stroke-width="1.2"></rect>
      <text x="5" y="10" fill="#f9a8d4">PR&#39;d</text>
    </g>
  </g>
  
  <g fill="#ec4899">
    <rect x="40" y="100" width="3" height="6" transform="rotate(20 41 103)"></rect>
    <rect x="170" y="120" width="3" height="6" transform="rotate(-30 171 123)" fill="#fbcfe8"></rect>
    <rect x="60" y="180" width="3" height="6" transform="rotate(45 61 183)" fill="#f9a8d4"></rect>
  </g>

  
  <path d="M80 250 L84 215 L98 215 L96 250 Z" fill="url(#no-jacket)"></path>
  <path d="M120 250 L116 215 L102 215 L104 250 Z" fill="url(#no-jacket)"></path>
  <rect x="76" y="248" width="24" height="10" rx="2" fill="#ec4899"></rect>
  <rect x="100" y="248" width="24" height="10" rx="2" fill="#ec4899"></rect>

  
  <path d="M62 145 Q60 132 70 128 L130 128 Q140 132 138 145 L142 200 L58 200 Z" fill="url(#no-jacket)" stroke="#831843" stroke-width="1"></path>
  
  <path d="M70 128 L100 145 L130 128 L130 138 L100 155 L70 138 Z" fill="#ec4899"></path>
  
  <g transform="translate(100 175)">
    <path d="M0 -12 L3.5 -3.5 L13 -3.5 L5 2.5 L8 12 L0 6 L-8 12 L-5 2.5 L-13 -3.5 L-3.5 -3.5 Z" fill="#fbcfe8" stroke="#ec4899" stroke-width="1.2"></path>
  </g>
  <rect x="62" y="160" width="18" height="9" rx="1" fill="#ed1c24"></rect>
  <text x="71" y="167" font-family="Arial" font-size="6" font-weight="bold" fill="#fff" text-anchor="middle">AMD</text>
  
  <rect x="58" y="195" width="84" height="6" fill="#ec4899"></rect>

  
  
  <path d="M138 142 Q156 130 158 105 L160 80 L154 78 L150 102 Q144 122 134 134 Z" fill="url(#no-jacket)"></path>
  <circle cx="156" cy="78" r="6" fill="#ffe0c2"></circle>
  
  <g transform="translate(166 64) rotate(35)">
    <path d="M0 -10 L26 -16 L26 16 L0 10 Z" fill="#ec4899" stroke="#831843" stroke-width="1.2"></path>
    <path d="M0 -10 L0 10 L-10 10 L-10 -10 Z" fill="#fbcfe8" stroke="#831843" stroke-width="1"></path>
    <line x1="-12" y1="-10" x2="-12" y2="10" stroke="#831843" stroke-width="1.5"></line>
    <circle cx="13" cy="0" r="3" fill="#fbcfe8" opacity="0.5"></circle>
  </g>
  
  <path d="M62 142 Q44 152 46 175 L60 178 L62 165 Q62 156 70 148 Z" fill="url(#no-jacket)"></path>
  <circle cx="60" cy="178" r="6" fill="#ffe0c2"></circle>

  
  <rect x="92" y="118" width="16" height="12" fill="#ffe0c2"></rect>

  
  <ellipse cx="100" cy="92" rx="30" ry="32" fill="#ffe7cc"></ellipse>
  <path d="M82 105 Q100 120 118 105 Q116 116 100 120 Q84 116 82 105 Z" fill="#ffd5a8" opacity="0.6"></path>

  
  
  <path d="M70 90 Q66 50 88 38 L92 50 L100 32 L108 50 L112 38 Q134 50 130 90 L130 102 L70 102 Z" fill="url(#no-hair)" stroke="#831843" stroke-width="1"></path>
  
  <path d="M72 88 Q86 76 100 82 Q114 76 128 88 L128 96 Q116 84 100 88 Q84 84 72 96 Z" fill="url(#no-hair)"></path>
  
  <path d="M72 88 L70 110 L78 108 L78 92 Z" fill="url(#no-hair)"></path>
  <path d="M128 88 L130 110 L122 108 L122 92 Z" fill="url(#no-hair)"></path>

  
  <g transform="translate(60 100)">
    <path d="M0 0 Q-12 14 -8 32 Q-2 28 4 18 Q6 8 0 0 Z" fill="url(#no-hair)" stroke="#831843" stroke-width="0.8"></path>
    <circle cx="-2" cy="-2" r="4" fill="#fbcfe8" stroke="#ec4899" stroke-width="1"></circle>
  </g>
  
  <g transform="translate(140 100)">
    <path d="M0 0 Q12 14 8 32 Q2 28 -4 18 Q-6 8 0 0 Z" fill="url(#no-hair)" stroke="#831843" stroke-width="0.8"></path>
    <circle cx="2" cy="-2" r="4" fill="#fbcfe8" stroke="#ec4899" stroke-width="1"></circle>
  </g>

  
  <g transform="translate(80 78)">
    <path d="M0 -4 L1 -1 L4 -1 L1.5 1 L2.5 4 L0 2 L-2.5 4 L-1.5 1 L-4 -1 L-1 -1 Z" fill="#fbcfe8"></path>
  </g>

  
  <g>
    <ellipse cx="86" cy="94" rx="7" ry="9" fill="#fff"></ellipse>
    <ellipse cx="114" cy="94" rx="7" ry="9" fill="#fff"></ellipse>
    <path d="M79 88 Q86 83 93 88" stroke="#1a0014" stroke-width="2.5" fill="none" stroke-linecap="round"></path>
    <path d="M107 88 Q114 83 121 88" stroke="#1a0014" stroke-width="2.5" fill="none" stroke-linecap="round"></path>
    <ellipse cx="86" cy="95" rx="5" ry="7" fill="#ec4899"></ellipse>
    <ellipse cx="114" cy="95" rx="5" ry="7" fill="#ec4899"></ellipse>
    <ellipse cx="86" cy="96" rx="2" ry="3.5" fill="#1a0014"></ellipse>
    <ellipse cx="114" cy="96" rx="2" ry="3.5" fill="#1a0014"></ellipse>
    
    <path d="M88 91 L89 92 L90 91 L89 90 Z" fill="#fff"></path>
    <path d="M116 91 L117 92 L118 91 L117 90 Z" fill="#fff"></path>
    <ellipse cx="84" cy="98" rx="1" ry="1.3" fill="#fff"></ellipse>
    <ellipse cx="112" cy="98" rx="1" ry="1.3" fill="#fff"></ellipse>
  </g>
  <path d="M78 82 L94 80" stroke="#831843" stroke-width="2.5" stroke-linecap="round"></path>
  <path d="M106 80 L122 82" stroke="#831843" stroke-width="2.5" stroke-linecap="round"></path>
  <path d="M99 102 L101 106" stroke="#d4a373" stroke-width="1" stroke-linecap="round"></path>
  
  <path d="M90 112 Q100 120 110 112 Q100 116 90 112 Z" fill="#7c2d12" stroke="#7c2d12" stroke-width="1"></path>
  <path d="M92 113 Q100 117 108 113" stroke="#fff" stroke-width="1.5" fill="none"></path>
  
  <ellipse cx="80" cy="108" rx="4" ry="2" fill="#ec4899" opacity="0.4"></ellipse>
  <ellipse cx="120" cy="108" rx="4" ry="2" fill="#ec4899" opacity="0.4"></ellipse>
</svg>