<svg xmlns="http://www.w3.org/2000/svg" viewBox="0 0 200 280" fill="none">
  <defs>
    <radialGradient id="pa-aura" cx="0.5" cy="0.6" r="0.55"><stop offset="0%" stop-color="#5eead4" stop-opacity="0.55"></stop><stop offset="100%" stop-color="#14b8a6" stop-opacity="0"></stop></radialGradient>
    <linearGradient id="pa-hair" x1="0" y1="0" x2="0" y2="1"><stop offset="0%" stop-color="#5eead4"></stop><stop offset="100%" stop-color="#0d9488"></stop></linearGradient>
    <linearGradient id="pa-cloak" x1="0" y1="0" x2="0" y2="1"><stop offset="0%" stop-color="#1a1f3a"></stop><stop offset="100%" stop-color="#0a0f1f"></stop></linearGradient>
    <radialGradient id="pa-eye" cx="0.5" cy="0.4" r="0.6"><stop offset="0%" stop-color="#5eead4"></stop><stop offset="100%" stop-color="#0f766e"></stop></radialGradient>
  </defs>
  <circle cx="100" cy="150" r="120" fill="url(#pa-aura)"></circle>

  
  <g font-family="ui-monospace,monospace" font-size="9" fill="#5eead4">
    <g opacity="0.85">
      <rect x="14" y="50" width="44" height="14" rx="3" fill="none" stroke="#14b8a6" stroke-width="1.2"></rect>
      <text x="20" y="60">a7f3b9</text>
    </g>
    <g opacity="0.7">
      <rect x="142" y="86" width="44" height="14" rx="3" fill="none" stroke="#14b8a6" stroke-width="1.2"></rect>
      <text x="148" y="96">8b1ad7</text>
    </g>
    <g opacity="0.6">
      <rect x="22" y="200" width="44" height="14" rx="3" fill="none" stroke="#14b8a6" stroke-width="1"></rect>
      <text x="28" y="210">c41e02</text>
    </g>
  </g>
  
  <g stroke="#14b8a6" stroke-width="1" stroke-dasharray="3 3" opacity="0.5">
    <line x1="58" y1="57" x2="100" y2="120"></line>
    <line x1="142" y1="93" x2="100" y2="120"></line>
    <line x1="66" y1="207" x2="100" y2="180"></line>
  </g>
  
  <g transform="translate(150 160)">
    <rect x="0" y="0" width="40" height="22" rx="3" fill="#0f1f1c" stroke="#14b8a6" stroke-width="1.2"></rect>
    <text x="4" y="9" font-family="monospace" font-size="6" fill="#5eead4">T-042</text>
    <rect x="4" y="13" width="24" height="2" fill="#14b8a6"></rect>
    <text x="32" y="19" font-family="monospace" font-size="5" fill="#5eead4">.94</text>
  </g>

  
  <path d="M82 250 L86 215 L98 215 L96 250 Z" fill="url(#pa-cloak)"></path>
  <path d="M118 250 L114 215 L102 215 L104 250 Z" fill="url(#pa-cloak)"></path>
  <rect x="78" y="248" width="22" height="10" rx="2" fill="#0a0a14"></rect>
  <rect x="100" y="248" width="22" height="10" rx="2" fill="#0a0a14"></rect>
  <line x1="78" y1="251" x2="100" y2="251" stroke="#14b8a6" stroke-width="1"></line>
  <line x1="100" y1="251" x2="122" y2="251" stroke="#14b8a6" stroke-width="1"></line>

  
  <path d="M40 230 Q30 160 60 130 L140 130 Q170 160 160 230 L150 220 L140 230 L130 220 L120 230 L110 220 L100 230 L90 220 L80 230 L70 220 L60 230 L50 220 Z" fill="url(#pa-cloak)" stroke="#0d9488" stroke-width="1" opacity="0.95"></path>

  
  <path d="M68 145 L132 145 L138 215 L62 215 Z" fill="url(#pa-cloak)"></path>
  
  <g transform="translate(100 178)">
    <circle r="11" fill="none" stroke="#5eead4" stroke-width="2"></circle>
    <circle r="11" fill="#5eead4" opacity="0.15"></circle>
    <line x1="8" y1="8" x2="14" y2="14" stroke="#5eead4" stroke-width="2.5" stroke-linecap="round"></line>
  </g>
  
  <rect x="62" y="160" width="18" height="9" rx="1" fill="#ed1c24"></rect>
  <text x="71" y="167" font-family="Arial" font-size="6" font-weight="bold" fill="#fff" text-anchor="middle">AMD</text>

  
  
  <path d="M132 148 Q150 140 158 118 L162 92 L156 90 L150 116 Q142 132 130 142 Z" fill="url(#pa-cloak)"></path>
  <circle cx="158" cy="86" r="6" fill="#ffe0c2"></circle>
  
  <g transform="translate(158 70)">
    <circle r="10" fill="rgba(94,234,212,0.2)" stroke="#5eead4" stroke-width="2"></circle>
    <circle r="6" fill="rgba(94,234,212,0.4)" stroke="#5eead4" stroke-width="0.5"></circle>
    <line x1="7" y1="7" x2="14" y2="14" stroke="#5eead4" stroke-width="3" stroke-linecap="round"></line>
    <line x1="-3" y1="-5" x2="3" y2="-1" stroke="#fff" stroke-width="1" opacity="0.7"></line>
  </g>
  
  <path d="M68 148 Q56 158 56 180 L58 200 L66 200 L66 180 Q66 162 72 152 Z" fill="url(#pa-cloak)"></path>
  <circle cx="62" cy="200" r="6" fill="#ffe0c2"></circle>

  
  <rect x="92" y="120" width="16" height="12" fill="#ffe0c2"></rect>

  
  <path d="M62 100 Q60 70 90 60 L110 60 Q140 70 138 100 L130 110 L70 110 Z" fill="url(#pa-cloak)" opacity="0.85"></path>

  
  <ellipse cx="100" cy="96" rx="30" ry="32" fill="#ffe7cc"></ellipse>
  <path d="M82 108 Q100 122 118 108 Q116 118 100 122 Q84 118 82 108 Z" fill="#ffd5a8" opacity="0.6"></path>

  
  <path d="M70 92 Q66 60 88 52 L92 64 L100 56 L108 64 L112 52 Q134 60 130 92 Q124 80 116 84 Q108 76 100 80 Q92 76 84 84 Q76 80 70 92 Z" fill="url(#pa-hair)" stroke="#0f766e" stroke-width="1"></path>
  
  <path d="M72 90 Q88 76 110 84 L114 92 Q104 86 88 90 Q78 92 72 96 Z" fill="url(#pa-hair)"></path>
  <path d="M122 88 Q124 76 132 76 L130 92 Q128 86 122 88 Z" fill="url(#pa-hair)"></path>

  
  <path d="M62 92 Q58 110 64 130 L80 122 L120 122 L136 130 Q142 110 138 92 Q132 102 100 100 Q68 102 62 92 Z" fill="url(#pa-cloak)" opacity="0.6"></path>

  
  <g>
    <ellipse cx="86" cy="98" rx="6.5" ry="8.5" fill="#fff"></ellipse>
    <ellipse cx="114" cy="98" rx="6.5" ry="6.5" fill="#fff"></ellipse>
    <path d="M79 92 Q86 87 93 92" stroke="#0a1a18" stroke-width="2.5" fill="none" stroke-linecap="round"></path>
    <path d="M107 95 Q114 92 121 95" stroke="#0a1a18" stroke-width="2.5" fill="none" stroke-linecap="round"></path>
    <ellipse cx="86" cy="99" rx="5" ry="7" fill="url(#pa-eye)"></ellipse>
    <ellipse cx="114" cy="99" rx="5" ry="5" fill="url(#pa-eye)"></ellipse>
    <ellipse cx="86" cy="100" rx="2" ry="3.5" fill="#0a1a18"></ellipse>
    <ellipse cx="114" cy="100" rx="2" ry="2.5" fill="#0a1a18"></ellipse>
    <ellipse cx="88" cy="95" rx="1.6" ry="2" fill="#fff"></ellipse>
    <ellipse cx="116" cy="96" rx="1.6" ry="1.6" fill="#fff"></ellipse>
  </g>
  
  <path d="M78 86 L94 84" stroke="#0f766e" stroke-width="2.5" stroke-linecap="round"></path>
  <path d="M106 88 Q114 82 122 86" stroke="#0f766e" stroke-width="2.5" fill="none" stroke-linecap="round"></path>
  
  <path d="M99 104 L101 108" stroke="#d4a373" stroke-width="1" stroke-linecap="round"></path>
  
  <path d="M94 116 Q100 118 106 116" stroke="#7c2d12" stroke-width="1.4" stroke-linecap="round" fill="none"></path>

  
  <line x1="120" y1="100" x2="158" y2="78" stroke="#5eead4" stroke-width="0.8" stroke-dasharray="2 2" opacity="0.6"></line>
</svg>